<?xml version="1.0" encoding="UTF-8"?>
<svg width="20px" height="20px" viewBox="0 0 20 20" version="1.1" xmlns="http://www.w3.org/2000/svg" xmlns:xlink="http://www.w3.org/1999/xlink">
    <title>9AC4F072-3011-4406-B834-A94A95E8661C</title>
    <defs>
        <rect id="path-1" x="0" y="0" width="72" height="16"></rect>
    </defs>
    <g id="Desktop" stroke="none" stroke-width="1" fill="none" fill-rule="evenodd">
        <g id="Thema---Desktop-(1440x900)---2-spaltig-Bilder" transform="translate(-459.000000, -142.000000)">
            <rect fill="" x="0" y="0" width="1443" height="822"></rect>
            <g id="Hero" transform="translate(257.000000, 68.000000)">
                <rect id="Rectangle" fill="" x="0" y="0" width="1185" height="225"></rect>
                <g id="Intro" transform="translate(94.000000, 69.000000)">
                    <g id="20dp-Icon/Action/Lock-Close-Filled" transform="translate(108.000000, 5.000000)" fill="#F75F00">
                        <path d="M10,3.01716509 C12.1421954,3.01716509 13.9949761,4.7597347 14,7.01716509 L14.0009891,7.57269914 C14.0010303,7.60973528 14.0010612,7.64445683 14.0010818,7.67686379 L14.0010818,7.84353046 C14.0010612,7.86667906 14.0010303,7.88751306 14.0009891,7.90603248 L14,8.01716509 L14,8.01716509 C15.1045695,8.01716509 16,8.91259559 16,10.0171651 L16,16 C16,17.1045695 15.1045695,18 14,18 L6,18 C4.8954305,18 4,17.1045695 4,16 L4,10.0171651 C4,8.91259559 4.8954305,8.01716509 6,8.01716509 L6,7.01716509 C6,4.80802609 7.790861,3.01716509 10,3.01716509 Z M10,11 C9.44771525,11 9,11.4477153 9,12 L9,12 L9,13.9950964 L9.00672773,14.1117176 C9.06449284,14.6090562 9.48716416,14.9950964 10,14.9950964 C10.5522847,14.9950964 11,14.5473812 11,13.9950964 L11,13.9950964 L11,12 L10.9932723,11.8833789 C10.9355072,11.3860402 10.5128358,11 10,11 Z M10,5.01716509 C8.9456382,5.01716509 8.00297222,5.85267728 8,7.01716509 C7.99829849,7.6838005 7.99829849,8.01713384 8,8.01716509 L12,8.01716509 L12,7.01716509 C12,5.91259559 11.1045695,5.01716509 10,5.01716509 Z" id="🎨-Color"></path>
                    </g>
                    <g id="13.-Tooltip/A.-Light:-Small" transform="translate(29.000000, 19.000000)">
                        <g id="🔺Arrow" transform="translate(53.000000, 0.000000)">
                            <mask id="mask-2" fill="">
                                <use xlink:href="#path-1"></use>
                            </mask>
                            <g id="Mask"></g>
                        </g>
                    </g>
                </g>
            </g>
        </g>
    </g>
</svg>
