<?xml version="1.0" encoding="UTF-8"?><svg id="Open_Source" xmlns="http://www.w3.org/2000/svg" viewBox="0 0 128 128"><defs><style>.cls-1,.cls-2{fill:#004b6d;}.cls-3{fill:#0087b9;}.cls-4,.cls-5{fill:#fff;}.cls-5,.cls-2{fill-rule:evenodd;}</style></defs><rect class="cls-3" x="1.5" y="1.5" width="125" height="125" rx="7" ry="7"/><path class="cls-2" d="m119.72,111.54c1.34,0,2.42,1.09,2.42,2.43,0,1.23-.92,2.26-2.14,2.4l-.28.02H8.28c-1.34,0-2.42-1.09-2.42-2.43,0-1.23.92-2.26,2.14-2.4l.28-.02h111.44Z"/><path class="cls-1" d="m114.86,50.45c-.28-6.48-5.62-11.59-12.1-11.59h-4.31v4.85h4.74c3.84.24,6.84,3.42,6.84,7.27v44.03c-.24,3.84-3.42,6.84-7.27,6.84H24.81c-3.84-.24-6.84-3.42-6.84-7.27v-44.03c.24-3.84,3.42-6.84,7.27-6.84h4.31v-4.85h-4.84c-6.48.29-11.59,5.63-11.59,12.11v44.13c.29,6.48,5.63,11.59,12.11,11.59h78.05c6.48-.29,11.59-5.63,11.59-12.11v-44.13Z"/><path class="cls-4" d="m64,8.37c20.71,0,37.5,16.79,37.5,37.5,0,20.5-16.45,37.16-36.88,37.5h-.62s-.62,0-.62,0c-20.43-.33-36.88-16.99-36.88-37.5,0-20.71,16.79-37.5,37.5-37.5Zm13.49,39h-26.97s0,.44,0,.44l.04,1.28.03.63.07,1.26.09,1.24.1,1.23.12,1.21.14,1.19.07.59.16,1.17.09.58.19,1.14.1.56.1.55.22,1.09c.12.6.26,1.19.39,1.77l.21.86.27,1.01.28.99.15.48.3.95.15.46.31.91.33.88c2.44,6.31,5.77,10.29,9.29,10.5h.29s.28,0,.28,0c3.43-.2,6.67-3.96,9.09-9.98l.2-.52.33-.88.31-.91.15-.47.3-.95.15-.48.28-.99.27-1.01c.17-.68.34-1.38.49-2.1l.23-1.08.21-1.11.1-.56.19-1.14.09-.58.16-1.17.07-.59.14-1.19.12-1.21.1-1.23.08-1.25.07-1.26.03-.63.05-1.72h0Zm-29.97,0h-17.98c.22,5.25,1.64,10.39,4.16,15h9.3c.83,0,1.5.67,1.5,1.5,0,.76-.57,1.4-1.32,1.49h-.18s-7.46.01-7.46.01c4.89,7.12,12.37,12.31,21.08,14.21-1.62-1.79-3.08-4.17-4.32-7l-.29-.66-.36-.9c-.2-.51-.39-1.02-.57-1.55l-.27-.8-.31-.99-.3-1.01-.15-.51-.28-1.05c-.12-.47-.24-.95-.35-1.43l-.17-.73-.23-1.11-.11-.56-.21-1.14-.1-.58-.19-1.17-.17-1.19-.08-.6-.14-1.21c-.07-.68-.14-1.36-.2-2.05l-.08-1.04-.08-1.26c-.07-1.22-.12-2.45-.14-3.68Zm50.96,0h-17.98c-.01.83-.04,1.65-.07,2.46l-.06,1.22-.08,1.26c-.05.7-.11,1.39-.18,2.07l-.1,1.02-.15,1.21-.08.6-.17,1.19-.19,1.17-.1.58-.21,1.14-.11.56-.23,1.11c-.11.49-.22.97-.34,1.45l-.18.71-.28,1.05-.15.51-.3,1.01-.31.99c-.18.54-.36,1.07-.55,1.59l-.29.76-.36.9c-1.31,3.12-2.86,5.73-4.6,7.66,14.85-3.24,26.13-16.04,27.06-31.64l.03-.57h0Zm-4.16-18h-15.43s.22,1.08.22,1.08l.21,1.14.1.58.19,1.17.17,1.19.08.6.14,1.21c.07.68.14,1.36.2,2.06l.08,1.04.08,1.26c.07,1.21.12,2.44.14,3.68h17.98c-.21-4.99-1.51-9.88-3.8-14.32l-.36-.68h0Zm-45.18,0h-15.43c-2.52,4.62-3.94,9.75-4.16,15h17.98c.02-.83.04-1.65.07-2.46l.06-1.21.08-1.26c.05-.7.11-1.39.18-2.07l.1-1.02.15-1.21.08-.6.17-1.19.19-1.17.1-.58.21-1.14.11-.56.11-.52h0Zm26.67,0h-23.59s-.15.68-.15.68l-.14.69-.21,1.11-.1.56-.19,1.14-.09.58-.16,1.17-.07.59-.14,1.19-.12,1.21-.1,1.23-.08,1.24-.07,1.26-.03.63-.05,1.72h26.97s0-.44,0-.44l-.04-1.28-.03-.63-.07-1.26-.09-1.24-.1-1.23-.12-1.21-.14-1.19-.07-.59-.16-1.17-.09-.58-.19-1.14-.1-.56-.1-.56-.22-1.09-.18-.82h0Zm-4.41-17.21l.17.19c1.54,1.76,2.94,4.06,4.14,6.78l.3.69.36.9c.2.51.39,1.02.57,1.55l.27.8.31.99.3,1.01.15.51.21.79h14.29c-4.83-7.04-12.09-12.05-20.39-14.05l-.69-.16h0Zm-14.77,0l-.37.08c-8.43,1.95-15.82,6.99-20.71,14.12h14.29s.21-.79.21-.79l.15-.51.3-1.01.31-.99c.18-.54.36-1.07.56-1.59l.29-.77.36-.9c1.31-3.12,2.86-5.73,4.6-7.66Zm7.38-.79h-.29c-3.43.21-6.67,3.97-9.09,9.98l-.2.52-.33.88-.31.91-.15.46-.3.95-.15.48-.23.81h22.1s-.3-1.05-.3-1.05l-.07-.24-.3-.95-.15-.46-.31-.91-.33-.88c-2.44-6.31-5.77-10.29-9.29-10.5h-.29Z"/><path class="cls-5" d="m95.19,62.37c.83,0,1.5.67,1.5,1.5,0,.76-.57,1.4-1.32,1.49h-.18s-34.18.01-34.18.01c-.83,0-1.5-.67-1.5-1.5,0-.76.57-1.4,1.32-1.49h.18s34.19-.01,34.19-.01Z"/></svg>