<?xml version="1.0" encoding="UTF-8"?>
<svg width="64px" height="64px" viewBox="0 0 64 64" version="1.1" xmlns="http://www.w3.org/2000/svg" xmlns:xlink="http://www.w3.org/1999/xlink">
    <title>F1226DB6-0A08-4FDA-98A2-9129C8CDAA12</title>
    <defs>
        <rect id="path-1" x="1" y="1" width="360" height="108" rx="8"></rect>
        <filter x="-4.7%" y="-12.0%" width="109.4%" height="131.5%" filterUnits="objectBoundingBox" id="filter-2">
            <feOffset dx="0" dy="4" in="SourceAlpha" result="shadowOffsetOuter1"></feOffset>
            <feGaussianBlur stdDeviation="5" in="shadowOffsetOuter1" result="shadowBlurOuter1"></feGaussianBlur>
            <feColorMatrix values="0 0 0 0 0   0 0 0 0 0   0 0 0 0 0  0 0 0 0.1 0" type="matrix" in="shadowBlurOuter1"></feColorMatrix>
        </filter>
    </defs>
    <g id="Desktop" stroke="none" stroke-width="1" fill="none" fill-rule="evenodd">
        <g id="Home---Desktop-(1440x900)" transform="translate(-563.000000, -671.000000)">
            <rect fill="#D7DCE1" x="0" y="0" width="1440" height="917"></rect>
            <g id="Section-2" transform="translate(0.000000, 548.000000)">
                <rect id="Rectangle-Copy" fill="#D7DCE1" x="0" y="0" width="1440" height="305"></rect>
                <g id="9.-Card/C.-Image-&amp;-Text/d.-Horizontal-Layout:-Image-Copy" transform="translate(539.000000, 100.000000)">
                    <g id="ðŸ—’-Card-Background">
                        <g id="ðŸ‘-Interaction-State" fill="black" fill-opacity="1">
                            <use filter="url(#filter-2)" xlink:href="#path-1"></use>
                        </g>
                        <rect id="â™¿-Accessibility-Focus" opacity="0.9" x="0" y="0" width="362" height="110" rx="9"></rect>
                        <rect id="ðŸŽ¨-Section-Background" fill="#FFFFFF" x="1" y="1" width="360" height="108" rx="8"></rect>
                    </g>
                    <g id="ðŸ“-Icon-Left:-64dp" transform="translate(24.000000, 23.000000)">
                        <g id="ðŸŽ¨-Icon-Style" transform="translate(13.000230, 10.000000)">
                            <path d="M36.49977,0 C38.3683334,0 39.8948964,1.4642776 39.9945911,3.3079648 L39.99977,3.5 L39.99977,40.49961 C39.99977,42.3682925 38.5353968,43.8951088 36.691615,43.9948203 L36.49957,44 L4.86157,44 C1.82085807,44 0.0964679105,42.3578806 0.00392750741,39.3890486 L-4.26325641e-14,39.1385816 L0.0020804215,3.50322 C0.00122591088,2.57440451 0.369597585,1.68333836 1.02606755,1.02626445 C1.63203964,0.419734861 2.43761537,0.0585020234 3.2885033,0.00651667306 L3.50208,0 L36.49977,0 Z M36.49977,2 L3.50208,2 C3.10401554,2 2.72227532,2.15822466 2.4409312,2.43982762 C2.19475496,2.68623034 2.04311098,3.00941176 2.00929211,3.35368413 L2.00208,3.50235837 L1.99999985,39.1381013 C2.00105163,41.0906418 2.78384831,41.9406886 4.65671993,41.9969908 L4.86157,42 L36.49957,42 C37.2793139,42 37.9202015,41.4049172 37.9929019,40.6441005 L37.99977,40.49961 L37.99977,3.5 C37.99977,2.72030388 37.4048819,2.07955132 36.64423,2.00686658 L36.49977,2 Z M32.99977,36 C33.5520547,36 33.99977,36.4477153 33.99977,37 C33.99977,37.5128358 33.6137298,37.9355072 33.1163911,37.9932723 L32.99977,38 L6.99977,38 C6.44748525,38 5.99977,37.5522847 5.99977,37 C5.99977,36.4871642 6.38581019,36.0644928 6.88314887,36.0067277 L6.99977,36 L32.99977,36 Z M31.99977,12 C33.0541318,12 33.9179351,12.8158778 33.9942843,13.8507377 L33.99977,14 L33.99977,29 C33.99977,30.0543618 33.1838922,30.9181651 32.1490323,30.9945143 L31.99977,31 L25.99977,31 C24.9454082,31 24.0816049,30.1841222 24.0052557,29.1492623 L23.99977,29 L23.99977,14 C23.99977,12.9456382 24.8156478,12.0818349 25.8505077,12.0054857 L25.99977,12 L31.99977,12 Z M18.99977,29 C19.5520547,29 19.99977,29.4477153 19.99977,30 C19.99977,30.5128358 19.6137298,30.9355072 19.1163911,30.9932723 L18.99977,31 L6.99977,31 C6.44748525,31 5.99977,30.5522847 5.99977,30 C5.99977,29.4871642 6.38581019,29.0644928 6.88314887,29.0067277 L6.99977,29 L18.99977,29 Z M31.99977,14 L25.99977,14 L25.99977,29 L31.99977,29 L31.99977,14 Z M14.4284809,11.2490234 C15.9167622,11.2490234 17.2234028,11.5742188 18.3484028,12.2246094 C19.2331684,12.7402344 19.9187153,13.4140625 20.4050434,14.2460938 C20.8972309,15.0957031 21.1433247,16.0742188 21.1433247,17.1816406 C21.1433247,18.8867188 20.6687153,20.1757812 19.7194966,21.0488281 C19.0222309,21.6933594 18.1462544,22.015625 17.0915669,22.015625 C15.8610981,22.015625 15.0232075,21.5703125 14.577895,20.6796875 C13.9392231,21.546875 13.1569966,21.9804688 12.2312153,21.9804688 C11.6276997,21.9804688 11.1501606,21.7929688 10.7985981,21.4179688 C10.4118794,21.0019531 10.21852,20.3984375 10.21852,19.6074219 C10.21852,18.6054688 10.40602,17.6357422 10.78102,16.6982422 C11.24977,15.5087891 12.0642231,14.9140625 13.2243794,14.9140625 C13.9115243,14.9140625 14.5502446,15.1586067 15.1405403,15.647695 L15.3161762,15.8017578 L15.8610981,14.9316406 L17.5661762,14.9316406 L16.8806294,19.2382812 L16.8584809,19.3891016 L16.8412544,19.5251562 L16.8412544,19.5251562 L16.8215669,19.7529688 C16.8199262,19.7860156 16.8191059,19.8166016 16.8191059,19.8447266 C16.8191059,20.3369141 17.0417622,20.5830078 17.4870747,20.5830078 C18.0847309,20.5830078 18.5593403,20.2695312 18.9109028,19.6425781 C19.2741841,18.9921875 19.4558247,18.1806641 19.4558247,17.2080078 C19.4558247,15.8662109 19.0427387,14.7880859 18.2165669,13.9736328 C17.2673481,13.0361328 15.9958637,12.5673828 14.4021137,12.5673828 C12.6853169,12.5673828 11.2644184,13.1298828 10.1394184,14.2548828 C8.94410594,15.4560547 8.34644969,17.0585938 8.34644969,19.0625 C8.34644969,22.4316406 10.1276997,24.1162109 13.6901997,24.1162109 C15.2424833,24.1162109 16.8047522,23.7817065 18.3770063,23.1126976 L18.7702778,22.9384766 L18.7702778,24.3798828 L18.4226678,24.5411023 C17.0209943,25.1601851 15.4845206,25.4697266 13.8132466,25.4697266 C11.5280903,25.4697266 9.74684031,24.8896484 8.46949656,23.7294922 C7.22144969,22.5986328 6.59742625,21.0488281 6.59742625,19.0800781 C6.59742625,17.5683594 6.94898875,16.203125 7.65211375,14.984375 C8.30836375,13.8476562 9.20484812,12.9511719 10.3415669,12.2949219 C11.5544575,11.5976562 12.9167622,11.2490234 14.4284809,11.2490234 Z M13.9978169,16.53125 C13.6931294,16.53125 13.4558247,16.6337891 13.2859028,16.8388672 C13.1468758,17.0114524 13.0176548,17.3801572 12.8982398,17.9449816 L12.8200825,18.3505859 L12.8200825,18.3505859 L12.7547138,18.7422485 L12.7547138,18.7422485 L12.708022,19.0734863 C12.6831196,19.2741699 12.6706684,19.4345703 12.6706684,19.5546875 C12.6706684,20.0527344 12.8845356,20.3017578 13.31227,20.3017578 C13.6456033,20.3017578 13.9673626,20.1188874 14.2775478,19.7531467 L14.3933247,19.6074219 L14.8415669,16.8212891 L14.6960591,16.732666 C14.4551736,16.5983887 14.2224262,16.53125 13.9978169,16.53125 Z" id="Base" fill="#282D37" fill-rule="nonzero"></path>
                            <path d="M33.36958,5.98845 C33.9218647,5.98845 34.36958,6.43616525 34.36958,6.98845 C34.36958,7.50128584 33.9835398,7.92395716 33.4862011,7.98172227 L33.36958,7.98845 L6.99977,7.98845 C6.44748525,7.98845 5.99977,7.54073475 5.99977,6.98845 C5.99977,6.47561416 6.38581019,6.05294284 6.88314887,5.99517773 L6.99977,5.98845 L33.36958,5.98845 Z" id="Pulse" fill="#EC0016"></path>
                        </g>
                    </g>
                </g>
            </g>
        </g>
    </g>
</svg>