<?xml version="1.0" encoding="UTF-8"?>
<svg width="64px" height="64px" viewBox="0 0 64 64" version="1.1" xmlns="http://www.w3.org/2000/svg" xmlns:xlink="http://www.w3.org/1999/xlink">
    <title>B74D3AF4-E38E-44AE-B34C-A8A0E5974AA9</title>
    <defs>
        <rect id="path-1" x="1" y="1" width="360" height="108" rx="8"></rect>
        <filter x="-4.7%" y="-12.0%" width="109.4%" height="131.5%" filterUnits="objectBoundingBox" id="filter-2">
            <feOffset dx="0" dy="4" in="SourceAlpha" result="shadowOffsetOuter1"></feOffset>
            <feGaussianBlur stdDeviation="5" in="shadowOffsetOuter1" result="shadowBlurOuter1"></feGaussianBlur>
            <feColorMatrix values="0 0 0 0 0   0 0 0 0 0   0 0 0 0 0  0 0 0 0.1 0" type="matrix" in="shadowBlurOuter1"></feColorMatrix>
        </filter>
    </defs>
    <g id="Desktop" stroke="none" stroke-width="1" fill="none" fill-rule="evenodd">
        <g id="Home---Desktop-(1440x900)" transform="translate(-943.000000, -671.000000)">
            <rect fill="#D7DCE1" x="0" y="0" width="1440" height="917"></rect>
            <g id="Section-2" transform="translate(0.000000, 548.000000)">
                <rect id="Rectangle-Copy" fill="#D7DCE1" x="0" y="0" width="1440" height="305"></rect>
                <g id="9.-Card/C.-Image-&amp;-Text/d.-Horizontal-Layout:-Image-Copy-2" transform="translate(919.000000, 100.000000)">
                    <g id="ðŸ—’-Card-Background">
                        <g id="ðŸ‘-Interaction-State" fill="black" fill-opacity="1">
                            <use filter="url(#filter-2)" xlink:href="#path-1"></use>
                        </g>
                        <rect id="â™¿-Accessibility-Focus" opacity="0.9" x="0" y="0" width="362" height="110" rx="9"></rect>
                        <rect id="ðŸŽ¨-Section-Background" fill="#FFFFFF" x="1" y="1" width="360" height="108" rx="8"></rect>
                    </g>
                    <g id="ðŸ“-Icon-Left:-64dp" transform="translate(24.000000, 23.000000)">
                        <g id="ðŸŽ¨-Icon-Style" transform="translate(10.000000, 6.000000)">
                            <path d="M32.5,37 C35.5586873,37 38.4894021,38.2645228 40.6460085,40.5109878 C42.7122767,42.6633504 43.9059059,45.5480229 43.9946669,48.5737709 L44,48.9375 L44,51 C44,51.5522847 43.5522847,52 43,52 C42.4871642,52 42.0644928,51.6139598 42.0067277,51.1166211 L42,51 L42,48.9375 C42,46.2934208 40.9925789,43.7599525 39.2032339,41.8960514 C37.5700478,40.1948159 35.4082768,39.1790245 33.1253224,39.0215401 L32.775,39.004 L32.6170416,39.1028517 C29.5341384,40.9574811 26.0569191,41.9920978 22.477812,42.1139861 L21.9891478,42.1249411 C18.2591021,42.0844596 14.6059559,41.0417825 11.3829568,39.1028517 L11.222,39.003 L10.9618154,39.0157004 C6.06280073,39.3022702 2.1422423,43.4767208 2.00378455,48.6541191 L2,48.9375 L2,51 C2,51.5522847 1.55228475,52 1,52 C0.487164161,52 0.0644928393,51.6139598 0.00672773133,51.1166211 L0,51 L0,48.9375 C0,42.3535274 5.13938629,37 11.5,37 C11.6894148,37 11.8749344,37.0537959 12.0349659,37.1551264 C15.0454759,39.0613527 18.4911822,40.0868605 21.9891478,40.1250589 C25.5088178,40.0868605 28.9545241,39.0613527 31.9650341,37.1551264 C32.1250656,37.0537959 32.3105852,37 32.5,37 Z M22,-5.77315973e-14 C23.7094356,-5.77315973e-14 24.9285427,0.345101019 26.4480473,1.10712148 C26.7816522,1.27442187 26.9911795,1.61140242 26.9995308,1.97790706 L26.9947578,2.1009765 L26.9827287,2.22216804 C33.0355651,3.9137956 36.1324666,7.80475278 36.0649677,13.7187943 C36.0582669,14.3061627 36.2241197,14.8808883 36.539531,15.3726501 L36.6647759,15.5530345 L38.4,17.8666667 C38.7461923,18.3282565 38.9510057,18.8785869 38.9922458,19.451075 L39,19.6666667 L39,20 C39,21.0543618 38.1841222,21.9181651 37.1492623,21.9945143 L37,22 L34.9619807,21.9989196 C34.9872809,22.3307826 35,22.664643 35,23 C35,30.1797017 29.1797017,36 22,36 C14.8202983,36 9,30.1797017 9,23 C9,22.6648474 9.0127036,22.3311837 9.03797457,21.9995078 L7,22 C5.9456382,22 5.08183488,21.1841222 5.00548574,20.1492623 L5,20 L5,19.6666667 C5,19.0896794 5.16634755,18.5265271 5.47684836,18.0437925 L5.6,17.8666667 L7.33522848,15.5530287 C7.7317258,15.0243675 7.94257465,14.3795814 7.93503363,13.7187956 C7.86753379,7.80409512 10.9651295,3.91293195 17.0192867,2.22160508 L17.0078785,2.10023797 C16.9667715,1.68799593 17.1841146,1.29309321 17.5543845,1.10726119 C19.0736533,0.344766486 20.2905581,-5.77315973e-14 22,-5.77315973e-14 Z M32.9567426,22.0170539 L32.8709784,22.0259406 L31.8049146,22.1645042 L30.2843909,22.3524491 L29.3230166,22.4644739 L27.9592924,22.612595 L27.1022947,22.6980601 L25.8949006,22.8063263 L25.1419664,22.8652111 L24.4305701,22.913458 L23.7606615,22.9510637 L23.1321905,22.9780247 L22.5451072,22.9943379 L22.2670702,22.9985004 L22.2670702,22.9985004 L21.7317881,22.9985004 L21.0176123,22.9831013 L21.0176123,22.9831013 L20.2387302,22.9510633 L19.5689745,22.9134574 L18.8577013,22.8652102 L18.1048635,22.8063249 L16.8975707,22.698058 L16.0406163,22.6125923 L15.1419331,22.5165002 L13.7155642,22.3524448 L12.1950413,22.1644987 L11.1289735,22.0259342 L11.04322,22.0174782 C11.0144712,22.342651 11,22.6703603 11,23 C11,29.0751322 15.9248678,34 22,34 C28.0751322,34 33,29.0751322 33,23 C33,22.6702114 32.9855157,22.3423598 32.9567426,22.0170539 Z M22,2 C20.9511577,2 20.1626692,2.15481648 19.2804126,2.51444847 L19.068,2.604 L19.9950652,11.9007763 C20.0459506,12.4110814 19.7037545,12.8699712 19.2146017,12.976799 L19.0992237,12.9950652 C18.5889186,13.0459506 18.1300288,12.7037545 18.023201,12.2146017 L18.0049348,12.0992237 L17.2211525,4.24462404 C12.2434351,5.73450681 9.87937492,8.83026649 9.9349034,13.6959727 C9.94642442,14.705507 9.65209811,15.6926351 9.09395703,16.5288189 L8.93522746,16.7530301 L7.2,19.0666667 C7.0961423,19.2051436 7.03045692,19.3675805 7.00833708,19.5377977 L7,19.6666667 L7,20 L10.7353488,20 C10.9547322,20 11.1738797,20.0144387 11.3913778,20.0432229 L12.948338,20.2437209 L13.9339999,20.3642891 L14.8777543,20.4743836 L15.7795509,20.5740076 L16.6393397,20.6631644 L17.8501488,20.777281 L18.6046991,20.8402845 L19.6574157,20.9151867 L20.3064145,20.9520576 L20.9131051,20.9784813 L21.4774374,20.994461 L21.9993613,21 L22.5215465,20.9944611 L23.0861008,20.9784814 L23.6929772,20.952058 L24.3421289,20.9151873 L25.3950197,20.8402857 L26.1496539,20.7772827 L27.3605483,20.663167 L28.2203716,20.5740108 L29.1221883,20.4743876 L30.5535484,20.3053197 L32.6085672,20.0432302 L32.6085672,20.0432302 C32.7535474,20.0240421 32.8992685,20.0112282 33.0453201,20.0048152 L33.2645942,20 L37,20 L37,19.6666667 C37,19.4935705 36.9550862,19.3242097 36.8706517,19.1747641 L36.8,19.0666667 L35.0647759,16.7530345 C34.4039489,15.8719318 34.0525339,14.7972888 34.0650979,13.6959743 C34.1206281,8.83059646 31.7568918,5.73492607 26.7798591,4.24492655 L25.9902058,12.0999622 C25.9349982,12.6494807 25.4447709,13.0501988 24.8952524,12.9949912 C24.3849852,12.943727 24.0030204,12.5173693 23.9952596,12.0167473 L24.0002233,11.9000378 L24.933,2.604 L24.7220573,2.51469724 C23.9272871,2.19104528 23.2079607,2.03306208 22.3072916,2.00470196 L22,2 Z" id="Base" fill="#282D37" fill-rule="nonzero"></path>
                            <path d="M14.0421536,17.2210306 C14.1962241,16.6906715 14.751064,16.3856295 15.281423,16.5397 L15.3952867,16.5682643 L15.5656714,16.6030365 L15.9316812,16.6642418 L16.2522801,16.709348 L16.6365294,16.7565134 L16.907014,16.7860441 L17.4840965,16.8400867 L18.1100005,16.8870593 L18.7855306,16.9265085 C18.9022992,16.9324312 19.021169,16.9380216 19.1421568,16.9432701 L19.8936343,16.9705837 C20.0231613,16.9744272 20.1548398,16.9779099 20.2886866,16.9810224 L21.1179214,16.99518 L22,17 L22.8824567,16.99518 L23.7119815,16.9810225 L24.4893822,16.957981 C24.6146502,16.9534257 24.73778,16.948519 24.8587884,16.9432706 L25.5595173,16.9077536 C25.6721075,16.9011757 25.7826101,16.8942749 25.8910418,16.8870606 L26.5169159,16.8400888 L27.0938964,16.7860473 L27.7483498,16.7093609 L28.0687215,16.6642676 L28.4343633,16.6030901 L28.6682408,16.5532254 C28.6871625,16.5484616 28.703772,16.5439814 28.7181118,16.5398096 C29.2484103,16.3855309 29.8033698,16.6903552 29.9576485,17.2206537 C30.1119272,17.7509522 29.8071029,18.3059117 29.2768044,18.4601904 L29.1013431,18.5056616 L28.8701975,18.5550617 L28.5812615,18.6073226 L28.2324293,18.6613765 L27.8215951,18.7161553 L27.5922691,18.7434828 C27.4053854,18.764924 27.2106257,18.7852078 27.0078517,18.8042618 L26.3753491,18.8576614 L25.6939318,18.9032464 L24.9627705,18.9405813 C24.8367189,18.9460921 24.7085601,18.951241 24.5782768,18.956019 L23.7709448,18.9801627 L22.9117956,18.9949681 L22,19 L21.0885871,18.9949681 L20.2297335,18.9801628 L19.4226134,18.9560193 L18.6664009,18.9229729 C18.5445619,18.9167475 18.4248097,18.9101693 18.3071269,18.9032473 L17.6257275,18.857663 L16.993171,18.8042644 L16.4086316,18.7434866 L16.1792635,18.7161632 L15.7683278,18.6613954 L15.419379,18.6073565 L15.1303201,18.5551153 C15.0870179,18.5466176 15.0461238,18.5382393 15.007594,18.5300027 L14.8044382,18.4824615 C14.7751911,18.4748807 14.748221,18.4674861 14.7234842,18.4603 C14.1931251,18.3062294 13.888083,17.7513896 14.0421536,17.2210306 Z" id="Pulse" fill="#EC0016"></path>
                        </g>
                    </g>
                </g>
            </g>
        </g>
    </g>
</svg>