<?xml version="1.0" encoding="UTF-8"?>
<svg width="64px" height="64px" viewBox="0 0 64 64" version="1.1" xmlns="http://www.w3.org/2000/svg" xmlns:xlink="http://www.w3.org/1999/xlink">
    <title>3ED57173-F006-4E9E-BC02-03B371400B08</title>
    <defs>
        <rect id="path-1" x="1" y="1" width="360" height="108" rx="8"></rect>
        <filter x="-4.7%" y="-12.0%" width="109.4%" height="131.5%" filterUnits="objectBoundingBox" id="filter-2">
            <feOffset dx="0" dy="4" in="SourceAlpha" result="shadowOffsetOuter1"></feOffset>
            <feGaussianBlur stdDeviation="5" in="shadowOffsetOuter1" result="shadowBlurOuter1"></feGaussianBlur>
            <feColorMatrix values="0 0 0 0 0   0 0 0 0 0   0 0 0 0 0  0 0 0 0.1 0" type="matrix" in="shadowBlurOuter1"></feColorMatrix>
        </filter>
    </defs>
    <g id="Desktop" stroke="none" stroke-width="1" fill="none" fill-rule="evenodd">
        <g id="Home---Desktop-(1440x900)" transform="translate(-183.000000, -671.000000)">
            <rect fill="#D7DCE1" x="0" y="0" width="1440" height="917"></rect>
            <g id="Section-2" transform="translate(0.000000, 548.000000)">
                <rect id="Rectangle-Copy" fill="#D7DCE1" x="0" y="0" width="1440" height="305"></rect>
                <g id="9.-Card/C.-Image-&amp;-Text/d.-Horizontal-Layout:-Image-Copy" transform="translate(159.000000, 100.000000)">
                    <g id="ðŸ—’-Card-Background">
                        <g id="ðŸ‘-Interaction-State" fill="black" fill-opacity="1">
                            <use filter="url(#filter-2)" xlink:href="#path-1"></use>
                        </g>
                        <rect id="â™¿-Accessibility-Focus" opacity="0.9" x="0" y="0" width="362" height="110" rx="9"></rect>
                        <rect id="ðŸŽ¨-Section-Background" fill="#FFFFFF" x="1" y="1" width="360" height="108" rx="8"></rect>
                    </g>
                    <g id="ðŸ“-Icon-Left:-64dp" transform="translate(24.000000, 23.000000)">
                        <g id="ðŸŽ¨-Icon-Style" transform="translate(7.030663, 6.998864)">
                            <path d="M37.9693373,0.00113577595 C39.5989479,0.00113577595 40.7819704,0.928326677 42.2038516,2.80144382 L43.3721972,4.40112911 C43.6812589,4.81016778 43.7647127,4.92074133 44.1000872,5.22514961 C45.3423877,6.35751167 48.2099202,7.61137253 49.8859681,8.45077106 C50.9008884,8.95835115 51.4692453,9.65728561 51.4692453,10.5011358 C51.4692453,14.1827738 48.0987574,16.9561235 39.9473373,17.8991358 C39.9473373,21.5522574 38.2140293,29.1139493 36.8742109,31.9268159 C34.8721248,36.1826756 34.5702458,41.4656653 37.7880518,44.6834713 C38.0201042,44.9155237 39.1626157,45.7738092 39.530812,46.0323774 C40.4922665,46.6759066 40.9693373,47.4699348 40.9693373,48.5011358 C40.9693373,49.905694 39.8054092,51.0011358 37.9693373,51.0011358 C36.1332653,51.0011358 34.6567564,50.7870171 33.6422095,49.9458691 C31.6623584,48.3043996 29.0417244,44.5758407 26.9167543,40.5136388 C26.6697651,40.0196603 26.8443528,39.3461512 27.3383313,39.099162 C27.8323098,38.8521727 28.4624507,39.1036312 28.70944,39.5976096 C32.2486547,45.9500681 33.9699881,47.6196379 34.9187162,48.4062163 C35.6362756,49.0011358 37.2116302,49.0011358 37.9693373,49.0011358 C38.7270443,49.0011358 38.9693373,48.7730995 38.9693373,48.5011358 C38.9693373,48.1827514 38.8811487,48.0422348 38.4860254,47.7446426 C37.4023742,46.9735637 36.6983118,46.4245778 36.3738382,46.0976848 C32.495163,42.1900895 32.7382362,36.1546175 34.9528482,31.3371543 C36.7746723,26.9585555 37.9693373,21.4329545 37.9693373,16.0961482 C47.9370384,15.2336831 49.4692453,12.6033929 49.4692453,10.5011358 C49.0999711,10.1816666 44.9770207,8.55521085 42.8385873,6.77712195 C42.5469798,6.54009272 42.2677601,6.23711814 41.9429528,5.8232211 L40.7897382,4.24989225 C39.6965895,2.76779958 38.8964431,2.00113578 37.9693373,2.00113578 C37.0357662,1.99952484 36.1021657,1.99957038 35.168536,2.00127239 C36.0987032,4.17196076 36.5268906,6.51419787 36.4526813,9.01759843 C36.3859973,11.2681621 34.9215445,13.2377985 32.7118365,13.971263 C30.1811839,14.6039261 28.0266491,14.2177345 26.4919174,12.3745069 C21.594735,20.2423612 16.5103062,25.6805771 10.5832779,30.290488 C5.82458261,33.9916954 4.32249092,41.1412405 8.50422839,44.1620036 C8.95192268,44.4854047 9.05268224,45.110501 8.72928116,45.5581953 C8.40588007,46.0058896 7.78078376,46.1066492 7.33308946,45.7832481 C1.92858419,41.8791938 3.66889683,33.0570763 9.35539664,28.7117836 C15.2522857,24.1253143 20.2528135,18.8636854 25.5133373,10.1421358 C25.8968736,8.62304943 26.6870243,6.43090157 27.4011871,4.9815285 C29.0003257,1.79775937 30.7620406,0.00113577595 32.9693373,0.00113577595 C34.6359876,-0.000378591983 36.3026543,-0.000378591983 37.9693373,0.00113577595 Z M19.3478552,27.1405026 C23.9561358,29.0012822 25.9693373,32.8114214 25.9693373,37.0011358 C25.9693373,40.0904247 24.1111979,42.8220435 21.0933373,45.0021358 C23.7498196,45.0021358 25.04702,45.6646049 25.676444,46.294029 C27.1460312,47.7636161 27.2290504,50.9662512 24.9693373,51.0011358 C22.7186341,51.0011358 15.6597931,50.9952125 12.0646071,50.9983094 C8.39036707,51.001423 7.10587228,50.2841647 5.4548415,49.3586287 C0.965237797,46.6648665 -1.52870459,40.9827351 1.02527783,33.6713604 C1.20740773,33.1499708 1.77772299,32.8749464 2.29911262,33.0570763 C2.82050224,33.2392062 3.09552659,33.8095215 2.91339669,34.3309111 C0.69187402,40.6905417 2.76407456,45.4117878 6.48383301,47.6436429 C7.376828,48.1794398 8.59074584,49.0011358 11.6072242,48.993139 C12.2880498,49.0011358 22.9795328,49.0011358 24.7103373,49.0011358 C24.7103373,48.4062163 24.5375444,47.9835565 24.2622305,47.7082426 C23.7847849,47.230797 22.6560882,47.0011358 20.9693373,47.0011358 C19.9693404,47.0004935 18.9693404,47.0004935 17.9693373,47.0011358 C17.0668924,47.0011358 16.8026343,46.245779 16.9053844,45.7314714 C16.9859367,45.3282728 17.1721647,45.1629625 18.2149348,44.5181342 C19.2577049,43.8733059 19.9993178,43.363881 20.7789955,42.7066257 C22.8096917,40.9947826 23.9693373,39.113882 23.9693373,37.0011358 C23.9693373,33.5581834 22.3608614,30.5140185 18.599018,28.9950222 C18.0869065,28.7882365 17.8393911,28.2054553 18.0461768,27.6933438 C18.2529625,27.1812324 18.8357438,26.933717 19.3478552,27.1405026 Z M39.9046559,32.5866553 C40.5093247,33.9106837 41.1036336,35.2196075 41.6875828,36.5134266 C42.8148632,38.9916222 42.1775634,41.9161214 40.121375,43.7005832 C39.7042637,44.0625729 39.0726775,44.0178881 38.7106877,43.6007768 C38.3486979,43.1836655 38.3933828,42.5520793 38.8104941,42.1900895 C40.1442753,41.0325683 40.671406,39.0343166 39.867079,37.3415365 C39.2640033,36.0116493 38.6696944,34.7027255 38.0841522,33.4147652 C37.8554759,32.912047 38.0776309,32.3191346 38.5803491,32.0904584 C39.0471589,31.8781161 39.6940639,32.0432925 39.9046559,32.5866553 Z M32.9632551,2.00161423 C31.6744346,2.00127723 30.2552291,3.55066514 29.0003257,6.29888758 C28.0430113,8.9288497 27.5528995,10.2835296 27.5299903,10.3629272 C28.56977,12.1852618 30.0741861,12.56928 32.1530731,12.0524372 C33.4930451,11.6057798 34.4117265,10.3701864 34.4535591,8.95835115 C34.5283855,6.4341319 34.0318233,4.12034081 32.9632551,2.00161423 Z" id="Base" fill="#282D37" fill-rule="nonzero"></path>
                            <path d="M27.7682879,15.0858578 C29.5639071,16.717812 31.3928116,17.8648622 34.3127006,18.5183237 C35.3648304,18.7537868 38.1977826,19.0166393 38.7498601,19.001511 C39.3019376,18.9863827 39.7617488,19.421666 39.7768771,19.9737436 C39.7920054,20.5258211 39.3575589,20.9999471 38.8046445,21.0007605 C36.7923395,21.0037209 35.0366336,20.7298105 33.8759119,20.4700448 C30.6202541,19.7414395 28.3132633,18.3632614 26.3420905,16.4283459 C25.9853447,16.078162 25.8402946,15.4040874 26.1960705,15.0261837 C26.7463626,14.4416657 27.28617,14.6476834 27.7682879,15.0858578 Z" id="Pulse" fill="#EC0016"></path>
                        </g>
                    </g>
                </g>
            </g>
        </g>
    </g>
</svg>